<mxfile host="app.diagrams.net" modified="2023-07-01T12:38:05.412Z" agent="Mozilla/5.0 (Windows NT 10.0; Win64; x64; rv:109.0) Gecko/20100101 Firefox/114.0" version="21.3.7" etag="w9lghwCFPGA5R4H3j_SW" type="github">
  <diagram name="Page-1" id="4861193q9hKjq4iFLJst">
    <mxGraphModel>
      <root>
        <mxCell id="0" />
        <mxCell id="1" parent="0" />
      </root>
    </mxGraphModel>
  </diagram>
</mxfile>
